<?xml version="1.0" encoding="utf-8"?>
<!-- Generator: Adobe Illustrator 27.0.1, SVG Export Plug-In . SVG Version: 6.00 Build 0)  -->
<svg version="1.1" id="Layer_1" xmlns="http://www.w3.org/2000/svg" xmlns:xlink="http://www.w3.org/1999/xlink" x="0px" y="0px"
	 viewBox="0 0 50 50" style="enable-background:new 0 0 50 50;" xml:space="preserve">
<style type="text/css">
	.st0{fill:#FEC83C;}
	.st1{fill:#2BBEE1;}
	.st2{fill:#050606;}
</style>
<path class="st0" d="M44.4,14.99c-0.28-0.28-0.61-0.51-0.99-0.67c-0.38-0.17-0.78-0.25-1.22-0.25c-0.43,0-0.84,0.08-1.23,0.25
	c-0.38,0.17-0.72,0.39-1,0.67c-0.28,0.28-0.5,0.61-0.66,0.99c-0.16,0.38-0.24,0.78-0.24,1.22v7.41l-4.15,4.07
	c-0.67,0.65-1.18,1.41-1.53,2.28c-0.36,0.87-0.53,1.77-0.53,2.7c0,0.81,0.12,1.53,0.36,2.15c0.24,0.62,0.5,1.16,0.79,1.61
	c0.29,0.45,0.55,0.82,0.79,1.11c0.24,0.29,0.36,0.51,0.36,0.65c0,0.2-0.08,0.38-0.24,0.54c-0.16,0.16-0.34,0.24-0.54,0.24
	c-0.13,0-0.23-0.02-0.3-0.07c-0.07-0.04-0.15-0.1-0.24-0.17c-0.39-0.33-0.74-0.74-1.05-1.23c-0.31-0.49-0.58-1-0.79-1.55
	c-0.22-0.55-0.38-1.11-0.5-1.68c-0.12-0.57-0.17-1.11-0.17-1.62c0-1.13,0.21-2.23,0.64-3.29c0.43-1.07,1.05-1.99,1.88-2.77l4.15-4
	L24.2,9.74c-0.29-0.29-0.63-0.51-1.01-0.67c-0.38-0.16-0.79-0.24-1.21-0.24c-0.74,0-1.38,0.21-1.91,0.64
	c-0.54,0.43-0.91,0.99-1.11,1.68l10.22,10.2c0.16,0.16,0.24,0.35,0.24,0.57c0,0.22-0.08,0.4-0.24,0.54
	c-0.16,0.15-0.35,0.22-0.57,0.22c-0.22,0-0.4-0.07-0.54-0.22l-10.5-10.5c-0.29-0.29-0.63-0.51-1.01-0.67
	c-0.38-0.16-0.79-0.24-1.21-0.24c-0.72,0-1.36,0.21-1.89,0.64c-0.54,0.43-0.91,0.98-1.11,1.66l12.39,12.41
	c0.16,0.16,0.24,0.35,0.24,0.57c0,0.2-0.08,0.38-0.24,0.54c-0.16,0.16-0.34,0.24-0.54,0.24c-0.22,0-0.41-0.08-0.57-0.24l-10.5-10.5
	c-0.29-0.29-0.62-0.51-1-0.66c-0.38-0.15-0.77-0.23-1.17-0.23c-0.72,0-1.37,0.21-1.92,0.63c-0.56,0.42-0.93,0.98-1.12,1.67
	l12.41,12.39c0.16,0.16,0.24,0.35,0.24,0.57c0,0.2-0.08,0.38-0.25,0.54c-0.17,0.16-0.35,0.24-0.55,0.24c-0.2,0-0.38-0.08-0.54-0.24
	l-7.17-7.17c-0.22-0.22-0.47-0.38-0.77-0.5c-0.3-0.12-0.6-0.17-0.9-0.17c-0.32,0-0.62,0.06-0.9,0.18c-0.28,0.12-0.53,0.29-0.75,0.5
	c-0.22,0.21-0.39,0.46-0.51,0.74c-0.12,0.28-0.18,0.58-0.18,0.9c0,0.64,0.23,1.19,0.7,1.65l17.15,16.54
	c0.49,0.48,1.05,0.9,1.66,1.26c0.62,0.36,1.26,0.67,1.92,0.91c0.67,0.25,1.35,0.43,2.05,0.55c0.7,0.12,1.39,0.18,2.08,0.18
	c1.62,0,3.14-0.31,4.57-0.92c1.42-0.62,2.66-1.45,3.72-2.51c1.06-1.06,1.89-2.3,2.51-3.72c0.62-1.42,0.92-2.94,0.92-4.57V17.2
	c0-0.43-0.08-0.84-0.24-1.22C44.91,15.6,44.68,15.27,44.4,14.99z"/>
<path class="st1" d="M10.98,37.46c0.49,0.49,1.07,0.88,1.74,1.17c0.67,0.29,1.38,0.43,2.13,0.43c0.22,0,0.4-0.08,0.55-0.23
	c0.15-0.15,0.23-0.34,0.23-0.55s-0.08-0.4-0.23-0.55c-0.15-0.15-0.34-0.23-0.55-0.23c-0.55,0-1.06-0.1-1.53-0.3
	c-0.47-0.2-0.88-0.48-1.24-0.84c-0.36-0.36-0.63-0.77-0.84-1.24c-0.2-0.47-0.3-0.98-0.3-1.53c0-0.22-0.08-0.4-0.23-0.55
	c-0.15-0.15-0.34-0.23-0.55-0.23c-0.22,0-0.4,0.08-0.55,0.23c-0.15,0.15-0.23,0.34-0.23,0.55c0,0.75,0.14,1.46,0.43,2.13
	C10.09,36.38,10.49,36.96,10.98,37.46z"/>
<path class="st1" d="M6.26,33.59c0-0.22-0.08-0.4-0.23-0.55C5.88,32.88,5.7,32.8,5.48,32.8c-0.22,0-0.4,0.08-0.55,0.23
	c-0.15,0.15-0.23,0.34-0.23,0.55c0,1.41,0.26,2.72,0.79,3.96c0.53,1.23,1.25,2.31,2.17,3.23c0.92,0.92,2,1.65,3.23,2.18
	c1.23,0.54,2.55,0.8,3.96,0.8c0.2,0,0.38-0.08,0.54-0.24c0.16-0.16,0.24-0.34,0.24-0.54c0-0.22-0.08-0.4-0.23-0.55
	c-0.15-0.15-0.34-0.23-0.55-0.23c-1.19,0-2.3-0.22-3.35-0.67c-1.04-0.45-1.95-1.07-2.73-1.85c-0.78-0.78-1.39-1.7-1.84-2.74
	C6.49,35.89,6.26,34.78,6.26,33.59z"/>
<path class="st1" d="M32.76,9.42c-0.49-0.5-1.07-0.89-1.73-1.18c-0.66-0.29-1.37-0.43-2.12-0.43c-0.22,0-0.4,0.08-0.55,0.23
	c-0.15,0.15-0.23,0.34-0.23,0.55s0.08,0.4,0.23,0.55c0.15,0.15,0.34,0.23,0.55,0.23c0.54,0,1.04,0.1,1.51,0.3
	c0.47,0.2,0.88,0.48,1.24,0.84c0.35,0.36,0.63,0.77,0.84,1.25c0.2,0.48,0.3,0.99,0.3,1.52c0,0.2,0.08,0.38,0.24,0.54
	c0.16,0.16,0.34,0.24,0.54,0.24c0.22,0,0.4-0.08,0.55-0.23c0.15-0.15,0.23-0.34,0.23-0.55c0-0.75-0.15-1.46-0.43-2.12
	C33.64,10.5,33.25,9.92,32.76,9.42z"/>
<path class="st1" d="M37.5,13.28c0,0.22,0.08,0.4,0.23,0.55c0.15,0.15,0.34,0.23,0.55,0.23c0.22,0,0.4-0.08,0.55-0.23
	c0.15-0.15,0.23-0.34,0.23-0.55c0-1.39-0.27-2.7-0.8-3.93C37.72,8.12,37,7.04,36.08,6.12c-0.92-0.92-2-1.65-3.23-2.18
	c-1.23-0.54-2.54-0.8-3.93-0.8c-0.22,0-0.4,0.08-0.55,0.23c-0.15,0.15-0.23,0.34-0.23,0.55c0,0.22,0.08,0.4,0.23,0.55
	c0.15,0.15,0.34,0.23,0.55,0.23c1.19,0,2.3,0.22,3.35,0.67c1.04,0.45,1.95,1.06,2.73,1.84c0.78,0.78,1.39,1.68,1.84,2.73
	C37.28,10.98,37.5,12.09,37.5,13.28z"/>
<path id="Outline" class="st2" d="M42.17,10.93c0.87,0,1.68,0.16,2.45,0.49c0.76,0.33,1.42,0.77,1.99,1.34
	c0.57,0.57,1.01,1.23,1.34,1.99c0.33,0.76,0.49,1.58,0.49,2.45v17.96c0,1.36-0.18,2.68-0.53,3.95c-0.36,1.27-0.86,2.45-1.5,3.55
	c-0.65,1.1-1.42,2.1-2.32,3c-0.9,0.9-1.9,1.67-3,2.32c-1.1,0.64-2.29,1.14-3.55,1.5C36.26,49.82,34.95,50,33.59,50
	c-0.9,0-1.79-0.08-2.66-0.24c-0.88-0.16-1.74-0.39-2.58-0.7c-0.84-0.3-1.65-0.69-2.41-1.15c-0.77-0.46-1.48-1-2.13-1.61
	c-0.99-0.91-1.95-1.83-2.88-2.75c-0.93-0.92-1.88-1.84-2.84-2.77c0.45,0.68,0.67,1.41,0.67,2.2c0,0.54-0.1,1.04-0.3,1.51
	c-0.2,0.47-0.48,0.88-0.84,1.24c-0.36,0.35-0.77,0.63-1.25,0.84c-0.48,0.2-0.99,0.3-1.52,0.3c-1.83,0-3.55-0.35-5.16-1.04
	c-1.62-0.7-3.03-1.65-4.23-2.85c-1.2-1.2-2.15-2.61-2.85-4.23c-0.7-1.62-1.04-3.34-1.04-5.16c0-0.54,0.1-1.04,0.3-1.51
	c0.2-0.47,0.48-0.88,0.84-1.24C3.06,30.48,3.48,30.2,3.96,30c0.48-0.2,0.99-0.3,1.52-0.3c0.48,0,0.93,0.09,1.37,0.26
	c-0.61-0.54-1.08-1.16-1.42-1.88c-0.34-0.72-0.51-1.49-0.51-2.32c0-0.61,0.09-1.2,0.27-1.76c0.18-0.57,0.46-1.08,0.84-1.54
	c-0.42-0.61-0.75-1.23-0.98-1.86c-0.23-0.63-0.35-1.32-0.35-2.05c0-0.7,0.12-1.37,0.35-2.01C5.28,15.89,5.59,15.3,6,14.77
	c0.41-0.53,0.89-0.99,1.46-1.38C8.02,13,8.64,12.72,9.3,12.54c0.17-0.68,0.46-1.31,0.85-1.88c0.39-0.57,0.86-1.06,1.39-1.47
	c0.54-0.41,1.13-0.72,1.78-0.95c0.65-0.22,1.33-0.34,2.02-0.34c0.59,0,1.15,0.07,1.67,0.22c0.67-0.78,1.4-1.38,2.2-1.8
	c0.8-0.42,1.72-0.63,2.76-0.63c0.62,0,1.24,0.09,1.84,0.28c0.6,0.19,1.16,0.46,1.66,0.8l0.33-0.52c-0.25-0.33-0.44-0.7-0.59-1.11
	C25.07,4.75,25,4.33,25,3.91c0-0.54,0.1-1.04,0.3-1.52c0.2-0.48,0.48-0.89,0.84-1.25c0.36-0.36,0.77-0.63,1.24-0.84
	C27.85,0.1,28.36,0,28.91,0c1.61,0,3.14,0.28,4.6,0.83c1.46,0.55,2.76,1.32,3.92,2.29c1.16,0.98,2.13,2.13,2.92,3.47
	c0.79,1.33,1.33,2.79,1.62,4.37c0.03,0,0.06,0,0.1-0.01C42.11,10.94,42.14,10.93,42.17,10.93z M14.85,43.76
	c0.2,0,0.38-0.08,0.54-0.24c0.16-0.16,0.24-0.34,0.24-0.54c0-0.22-0.08-0.4-0.23-0.55c-0.15-0.15-0.34-0.23-0.55-0.23
	c-1.19,0-2.3-0.22-3.35-0.67c-1.04-0.45-1.95-1.07-2.73-1.85c-0.78-0.78-1.39-1.7-1.84-2.74c-0.45-1.04-0.67-2.16-0.67-3.35
	c0-0.22-0.08-0.4-0.23-0.55C5.88,32.88,5.7,32.8,5.48,32.8c-0.22,0-0.4,0.08-0.55,0.23c-0.15,0.15-0.23,0.34-0.23,0.55
	c0,1.41,0.26,2.72,0.79,3.96c0.53,1.23,1.25,2.31,2.17,3.23c0.92,0.92,2,1.65,3.23,2.18C12.12,43.49,13.44,43.76,14.85,43.76z
	 M45.3,35.15V17.2c0-0.43-0.08-0.84-0.24-1.22c-0.16-0.38-0.38-0.71-0.66-0.99c-0.28-0.28-0.61-0.51-0.99-0.67
	c-0.38-0.17-0.78-0.25-1.22-0.25c-0.43,0-0.84,0.08-1.23,0.25c-0.38,0.17-0.72,0.39-1,0.67c-0.28,0.28-0.5,0.61-0.66,0.99
	c-0.16,0.38-0.24,0.78-0.24,1.22v7.41l-4.15,4.07c-0.67,0.65-1.18,1.41-1.53,2.28c-0.36,0.87-0.53,1.77-0.53,2.7
	c0,0.81,0.12,1.53,0.36,2.15c0.24,0.62,0.5,1.16,0.79,1.61c0.29,0.45,0.55,0.82,0.79,1.11c0.24,0.29,0.36,0.51,0.36,0.65
	c0,0.2-0.08,0.38-0.24,0.54c-0.16,0.16-0.34,0.24-0.54,0.24c-0.13,0-0.23-0.02-0.3-0.07c-0.07-0.04-0.15-0.1-0.24-0.17
	c-0.39-0.33-0.74-0.74-1.05-1.23c-0.31-0.49-0.58-1-0.79-1.55c-0.22-0.55-0.38-1.11-0.5-1.68c-0.12-0.57-0.17-1.11-0.17-1.62
	c0-1.13,0.21-2.23,0.64-3.29c0.43-1.07,1.05-1.99,1.88-2.77l4.15-4L24.2,9.74c-0.29-0.29-0.63-0.51-1.01-0.67
	c-0.38-0.16-0.79-0.24-1.21-0.24c-0.74,0-1.38,0.21-1.91,0.64c-0.54,0.43-0.91,0.99-1.11,1.68l10.22,10.2
	c0.16,0.16,0.24,0.35,0.24,0.57c0,0.22-0.08,0.4-0.24,0.54c-0.16,0.15-0.35,0.22-0.57,0.22c-0.22,0-0.4-0.07-0.54-0.22l-10.5-10.5
	c-0.29-0.29-0.63-0.51-1.01-0.67c-0.38-0.16-0.79-0.24-1.21-0.24c-0.72,0-1.36,0.21-1.89,0.64c-0.54,0.43-0.91,0.98-1.11,1.66
	l12.39,12.41c0.16,0.16,0.24,0.35,0.24,0.57c0,0.2-0.08,0.38-0.24,0.54c-0.16,0.16-0.34,0.24-0.54,0.24c-0.22,0-0.41-0.08-0.57-0.24
	l-10.5-10.5c-0.29-0.29-0.62-0.51-1-0.66c-0.38-0.15-0.77-0.23-1.17-0.23c-0.72,0-1.37,0.21-1.92,0.63
	c-0.56,0.42-0.93,0.98-1.12,1.67l12.41,12.39c0.16,0.16,0.24,0.35,0.24,0.57c0,0.2-0.08,0.38-0.25,0.54
	c-0.17,0.16-0.35,0.24-0.55,0.24c-0.2,0-0.38-0.08-0.54-0.24l-7.17-7.17c-0.22-0.22-0.47-0.38-0.77-0.5c-0.3-0.12-0.6-0.17-0.9-0.17
	c-0.32,0-0.62,0.06-0.9,0.18c-0.28,0.12-0.53,0.29-0.75,0.5c-0.22,0.21-0.39,0.46-0.51,0.74c-0.12,0.28-0.18,0.58-0.18,0.9
	c0,0.64,0.23,1.19,0.7,1.65l17.15,16.54c0.49,0.48,1.05,0.9,1.66,1.26c0.62,0.36,1.26,0.67,1.92,0.91c0.67,0.25,1.35,0.43,2.05,0.55
	c0.7,0.12,1.39,0.18,2.08,0.18c1.62,0,3.14-0.31,4.57-0.92c1.42-0.62,2.66-1.45,3.72-2.51c1.06-1.06,1.89-2.3,2.51-3.72
	C45,38.3,45.3,36.78,45.3,35.15z M14.85,39.07c0.22,0,0.4-0.08,0.55-0.23c0.15-0.15,0.23-0.34,0.23-0.55s-0.08-0.4-0.23-0.55
	c-0.15-0.15-0.34-0.23-0.55-0.23c-0.55,0-1.06-0.1-1.53-0.3c-0.47-0.2-0.88-0.48-1.24-0.84c-0.36-0.36-0.63-0.77-0.84-1.24
	c-0.2-0.47-0.3-0.98-0.3-1.53c0-0.22-0.08-0.4-0.23-0.55c-0.15-0.15-0.34-0.23-0.55-0.23c-0.22,0-0.4,0.08-0.55,0.23
	c-0.15,0.15-0.23,0.34-0.23,0.55c0,0.75,0.14,1.46,0.43,2.13c0.29,0.67,0.68,1.25,1.17,1.74c0.49,0.49,1.07,0.88,1.74,1.17
	C13.38,38.92,14.09,39.07,14.85,39.07z M28.91,3.13c-0.22,0-0.4,0.08-0.55,0.23c-0.15,0.15-0.23,0.34-0.23,0.55
	c0,0.22,0.08,0.4,0.23,0.55c0.15,0.15,0.34,0.23,0.55,0.23c1.19,0,2.3,0.22,3.35,0.67c1.04,0.45,1.95,1.06,2.73,1.84
	c0.78,0.78,1.39,1.68,1.84,2.73c0.45,1.04,0.67,2.16,0.67,3.35c0,0.22,0.08,0.4,0.23,0.55c0.15,0.15,0.34,0.23,0.55,0.23
	c0.22,0,0.4-0.08,0.55-0.23c0.15-0.15,0.23-0.34,0.23-0.55c0-1.39-0.27-2.7-0.8-3.93C37.72,8.12,37,7.04,36.08,6.12
	c-0.92-0.92-2-1.65-3.23-2.18C31.62,3.4,30.3,3.13,28.91,3.13z M28.91,7.8c-0.22,0-0.4,0.08-0.55,0.23
	c-0.15,0.15-0.23,0.34-0.23,0.55s0.08,0.4,0.23,0.55c0.15,0.15,0.34,0.23,0.55,0.23c0.54,0,1.04,0.1,1.51,0.3
	c0.47,0.2,0.88,0.48,1.24,0.84c0.35,0.36,0.63,0.77,0.84,1.25c0.2,0.48,0.3,0.99,0.3,1.52c0,0.2,0.08,0.38,0.24,0.54
	c0.16,0.16,0.34,0.24,0.54,0.24c0.22,0,0.4-0.08,0.55-0.23c0.15-0.15,0.23-0.34,0.23-0.55c0-0.75-0.15-1.46-0.43-2.12
	c-0.29-0.66-0.68-1.24-1.17-1.74c-0.49-0.5-1.07-0.89-1.73-1.18C30.37,7.95,29.67,7.8,28.91,7.8z"/>
</svg>
