<svg xmlns="http://www.w3.org/2000/svg" version="1.1" xmlns:xlink="http://www.w3.org/1999/xlink" width="512" height="512" x="0" y="0" viewBox="0 0 128 128" style="enable-background:new 0 0 512 512" xml:space="preserve" class=""><g><path d="M15.367 113.92a2 2 0 0 0 1.269-3.794c-4.537-1.519-8.355-6.353-10.415-10.372a20.017 20.017 0 0 1-1.309-15.126 2 2 0 0 0-3.81-1.22 24.049 24.049 0 0 0 1.56 18.172c1.173 2.29 5.56 9.949 12.705 12.34zM14.187 84.113a1.997 1.997 0 0 0-2.515 1.295 14.601 14.601 0 0 0 .944 11.036c.708 1.382 3.36 6.005 7.751 7.474a2.024 2.024 0 0 0 2.532-1.263 2.001 2.001 0 0 0-1.263-2.532c-2.35-.785-4.36-3.358-5.46-5.504a10.576 10.576 0 0 1-.695-7.99 2 2 0 0 0-1.294-2.516zM107.667 11.606a2 2 0 0 0 1.562 2.36c4.57.93 8.853 5.215 11.338 8.916a20.188 20.188 0 0 1 3.118 14.766 2 2 0 0 0 1.606 2.329 1.961 1.961 0 0 0 .363.033 2 2 0 0 0 1.965-1.639 24.214 24.214 0 0 0-3.731-17.719c-1.42-2.116-6.618-9.134-13.862-10.607a1.997 1.997 0 0 0-2.359 1.561zM114.795 39.317a2.019 2.019 0 0 0 2.329-1.605 14.695 14.695 0 0 0-2.264-10.758c-.857-1.277-4.002-5.517-8.461-6.424a2 2 0 0 0-.797 3.921c2.357.48 4.613 2.76 5.938 4.733a10.67 10.67 0 0 1 1.65 7.804 2 2 0 0 0 1.605 2.33zM111.67 86.552c-.222-2.519-.432-4.65-.432-4.65l-4.15-44.857a10.595 10.595 0 0 0-21.142.786l-.328 6.222c-7.36-11.993-22.35-36.35-22.529-36.641a10.606 10.606 0 0 0-6.697-4.85 10.361 10.361 0 0 0-7.96 1.355 10.542 10.542 0 0 0-2.024 1.679L65.11 36.202a2 2 0 0 1-.443 2.593 2 2 0 0 1-2.97-.507L44.079 9.456l-.005.015-2.655-4.346a10.607 10.607 0 0 0-6.696-4.85A10.361 10.361 0 0 0 26.76 1.63a10.933 10.933 0 0 0-3.354 14.87l.38.62c.006.012.016.02.022.03l21.506 35.197a2 2 0 0 1-.442 2.592 2 2 0 0 1-2.97-.507L20.48 19.376a10.468 10.468 0 0 0-2.452 1.147 10.933 10.933 0 0 0-3.353 14.87l3.723 6.094c.01.016.023.028.033.044l.23.386 1.189 1.947-.03-.003 11.755 19.72a2 2 0 0 1-.454 2.574 2 2 0 0 1-2.982-.526L15.403 44.264a10.466 10.466 0 0 0-2.444 1.146 10.933 10.933 0 0 0-3.355 14.87l27.864 45.635C45.18 118.535 59.532 128 74.64 128a35.601 35.601 0 0 0 17.023-4.335l.122-.071 3.236-2.058c8.025-5.105 12.786-10.88 15.434-18.722 1.939-5.737 1.68-10.966 1.214-16.262z" fill="#ffffff" opacity="1" data-original="#000000" class=""></path></g></svg>